<svg width="45" height="44" viewBox="0 0 45 44" fill="none" xmlns="http://www.w3.org/2000/svg">
<rect width="45" height="44" rx="22" fill="#777777"/>
<path d="M26.4799 24.4107H25.6254L25.3045 24.1429C26.3197 22.9108 26.9609 21.357 26.9609 19.5893C26.9608 15.732 23.8621 12.625 20.0164 12.625C16.2232 12.625 13.125 15.732 13.125 19.5893C13.125 23.4466 16.2232 26.5536 20.0696 26.5536C21.7791 26.5536 23.3816 25.9106 24.6102 24.893L24.9305 25.1609V26.0179L30.2725 31.375L31.875 29.7679L26.4799 24.4107ZM20.0696 24.4107C17.3986 24.4107 15.2618 22.2678 15.2618 19.5893C15.2618 16.9107 17.3986 14.7679 20.0696 14.7679C22.7405 14.7679 24.8773 16.9107 24.8773 19.5893C24.8773 22.2678 22.7405 24.4107 20.0696 24.4107Z" fill="white"/>
</svg>
